<svg width="1024" height="1024" viewBox="0 0 1024 1024" xmlns="http://www.w3.org/2000/svg">
  <defs>
    <linearGradient id="bg" x1="0" y1="0" x2="0" y2="1">
      <stop offset="0" stop-color="#FFC55E"/>
      <stop offset="1" stop-color="#FF8A3D"/>
    </linearGradient>
    <linearGradient id="tongue" x1="0" y1="0" x2="0" y2="1">
      <stop offset="0" stop-color="#FF8577"/>
      <stop offset="1" stop-color="#F4574A"/>
    </linearGradient>
    <filter id="soft" x="-20%" y="-20%" width="140%" height="140%">
      <feDropShadow dx="0" dy="14" stdDeviation="18" flood-color="#B34A00" flood-opacity="0.28"/>
    </filter>
    <clipPath id="mouthClip">
      <rect x="352" y="330" width="320" height="272" rx="132"/>
    </clipPath>
  </defs>

  <!-- 背景（フルブリード・iOS側で角丸マスクされる） -->
  <rect width="1024" height="1024" fill="url(#bg)"/>

  <!-- スピード線（太く・長く・くっきり） -->
  <g stroke="#FFFFFF" stroke-width="52" stroke-linecap="round">
    <line x1="30"  y1="368" x2="168" y2="380"/>
    <line x1="58"  y1="470" x2="164" y2="474"/>
    <line x1="86"  y1="572" x2="168" y2="566"/>
  </g>
  <g stroke="#FFE3B8" stroke-width="30" stroke-linecap="round" opacity="0.9">
    <line x1="120" y1="668" x2="210" y2="652"/>
  </g>

  <!-- 吹き出し＋口（わずかに傾けて勢いを出す） -->
  <g transform="rotate(-5 512 462)">
    <g filter="url(#soft)">
      <path d="M 342 232
               h 340
               a 150 150 0 0 1 150 150
               v 160
               a 150 150 0 0 1 -150 150
               h -270
               l -108 118
               q -18 20 -14 -14
               l 12 -104
               a 150 150 0 0 1 -110 -145
               v -165
               a 150 150 0 0 1 150 -150
               z"
            fill="#FFFFFF"/>
    </g>

    <!-- 大きく開いた口 -->
    <rect x="352" y="330" width="320" height="272" rx="132" fill="#7E2415"/>
    <g clip-path="url(#mouthClip)">
      <!-- 上の歯 -->
      <rect x="332" y="318" width="360" height="84" rx="26" fill="#FFFFFF"/>
      <!-- 舌 -->
      <ellipse cx="512" cy="636" rx="140" ry="104" fill="url(#tongue)"/>
    </g>
  </g>
</svg>
